<svg id="Layer_3" enable-background="new 0 0 64 64" height="512" viewBox="0 0 64 64" width="512" xmlns="http://www.w3.org/2000/svg" fill="rgb(205, 73, 56)"><g><g><path d="m4 45h1v-2h-2v1c0 .552.448 1 1 1z"/></g><g><path d="m7 13h24v2h-24z"/></g><g><path d="m15.685 50.968c.21.009.419.009.629 0 2.609-.166 4.686-2.319 4.686-4.968 0-2.757-2.243-5-5-5s-5 2.243-5 5c0 2.649 2.077 4.802 4.685 4.968zm.315-7.968c1.654 0 3 1.346 3 3s-1.346 3-3 3-3-1.346-3-3 1.346-3 3-3z"/></g><g><circle cx="16" cy="46" r="1"/></g><g><path d="m13 6c0-.553.447-1 1-1h3v-2h-8v8h4z"/></g><g><path d="m31 27h11.132l-4-6h-7.132z"/></g><g><path d="m26 6v5h3v-8h-6v2h2c.553 0 1 .447 1 1z"/></g><g><path d="m15 7h9v4h-9z"/></g><g><path d="m52.658 51.789-.422.211c-1.027.513-2.149.818-3.291.929-.31.042-.624.071-.945.071s-.635-.029-.945-.071c-1.142-.111-2.264-.415-3.291-.929l-.422-.211c-2.066-1.033-4.617-1.033-6.684 0l-.422.211c-2.619 1.309-5.854 1.309-8.473 0l-.422-.211c-2.066-1.033-4.617-1.033-6.684 0l-.421.211c-1.027.513-2.149.818-3.291.929-.31.042-.624.071-.945.071s-.635-.029-.945-.071c-1.142-.111-2.264-.415-3.291-.929l-.422-.211c-2.066-1.033-4.617-1.033-6.684 0l-1.658.829v8.382h58v-8.382l-1.658-.829c-2.067-1.033-4.617-1.033-6.684 0z"/></g><g><path d="m55 34c0-1.654 1.346-3 3-3h2.816c-.414-1.161-1.514-2-2.816-2h-14-18c-.553 0-1-.447-1-1v-8c0-.553.447-1 1-1h10.798l-.443-.664c-.557-.837-1.491-1.336-2.496-1.336h-29.859c-.552 0-1 .448-1 1v23h2c1.103 0 2 .897 2 2v2h2.08c.488-3.386 3.401-6 6.92-6s6.432 2.614 6.92 6h18.16c.488-3.386 3.401-6 6.92-6s6.432 2.614 6.92 6h3.08c1.654 0 3-1.346 3-3v-5h-3c-1.654 0-3-1.346-3-3zm-32-6c0 .553-.447 1-1 1h-16c-.553 0-1-.447-1-1v-8c0-.553.447-1 1-1h16c.553 0 1 .447 1 1zm8 5h-6v-2h6z"/></g><g><path d="m27 21h2v6h-2z"/></g><g><path d="m7 21h14v6h-14z"/></g><g><path d="m58 33c-.552 0-1 .448-1 1s.448 1 1 1h3v-2z"/></g><g><circle cx="48" cy="46" r="1"/></g><g><path d="m47.685 50.968c.21.009.419.009.629 0 2.609-.166 4.686-2.319 4.686-4.968 0-2.757-2.243-5-5-5s-5 2.243-5 5c0 2.649 2.077 4.802 4.685 4.968zm.315-7.968c1.654 0 3 1.346 3 3s-1.346 3-3 3-3-1.346-3-3 1.346-3 3-3z"/></g></g></svg>